<mxfile host="app.diagrams.net" modified="2023-09-11T11:20:40.084Z" agent="Mozilla/5.0 (Windows NT 10.0; Win64; x64) AppleWebKit/537.36 (KHTML, like Gecko) Chrome/116.0.0.0 Safari/537.36" etag="IOrdhrcaD7jApljjz6vB" version="21.7.4" type="device">
  <diagram id="iL2ORo6g9EXBeduXCeGR" name="Seite-1">
    <mxGraphModel dx="2514" dy="2242" grid="1" gridSize="10" guides="1" tooltips="1" connect="1" arrows="1" fold="1" page="1" pageScale="1" pageWidth="827" pageHeight="1169" math="0" shadow="0">
      <root>
        <mxCell id="0" />
        <mxCell id="1" parent="0" />
        <mxCell id="26M-iLZFq-NwPMCc8lZ8-20" value="" style="whiteSpace=wrap;html=1;aspect=fixed;" vertex="1" parent="1">
          <mxGeometry x="-190" y="70" width="1140" height="1140" as="geometry" />
        </mxCell>
        <mxCell id="6-bv8Tq8GmPl6VsPhSyO-18" style="edgeStyle=orthogonalEdgeStyle;rounded=0;orthogonalLoop=1;jettySize=auto;html=1;exitX=0.5;exitY=1;exitDx=0;exitDy=0;entryX=0.5;entryY=0;entryDx=0;entryDy=0;" parent="1" source="6-bv8Tq8GmPl6VsPhSyO-1" target="6-bv8Tq8GmPl6VsPhSyO-12" edge="1">
          <mxGeometry relative="1" as="geometry">
            <Array as="points">
              <mxPoint x="310" y="290" />
              <mxPoint x="-25" y="290" />
            </Array>
          </mxGeometry>
        </mxCell>
        <mxCell id="6-bv8Tq8GmPl6VsPhSyO-19" style="edgeStyle=orthogonalEdgeStyle;rounded=0;orthogonalLoop=1;jettySize=auto;html=1;exitX=0.5;exitY=1;exitDx=0;exitDy=0;" parent="1" source="6-bv8Tq8GmPl6VsPhSyO-1" target="6-bv8Tq8GmPl6VsPhSyO-14" edge="1">
          <mxGeometry relative="1" as="geometry">
            <mxPoint x="270" y="270" as="sourcePoint" />
            <Array as="points">
              <mxPoint x="310" y="290" />
              <mxPoint x="185" y="290" />
            </Array>
          </mxGeometry>
        </mxCell>
        <mxCell id="6-bv8Tq8GmPl6VsPhSyO-21" style="edgeStyle=orthogonalEdgeStyle;rounded=0;orthogonalLoop=1;jettySize=auto;html=1;entryX=0.5;entryY=0;entryDx=0;entryDy=0;exitX=0.5;exitY=1;exitDx=0;exitDy=0;" parent="1" source="6-bv8Tq8GmPl6VsPhSyO-1" target="6-bv8Tq8GmPl6VsPhSyO-7" edge="1">
          <mxGeometry relative="1" as="geometry">
            <mxPoint x="390" y="275" as="sourcePoint" />
          </mxGeometry>
        </mxCell>
        <mxCell id="6-bv8Tq8GmPl6VsPhSyO-22" style="edgeStyle=orthogonalEdgeStyle;rounded=0;orthogonalLoop=1;jettySize=auto;html=1;entryX=0.5;entryY=0;entryDx=0;entryDy=0;" parent="1" source="6-bv8Tq8GmPl6VsPhSyO-1" target="6-bv8Tq8GmPl6VsPhSyO-13" edge="1">
          <mxGeometry relative="1" as="geometry">
            <Array as="points">
              <mxPoint x="310" y="290" />
              <mxPoint x="655" y="290" />
            </Array>
          </mxGeometry>
        </mxCell>
        <mxCell id="6-bv8Tq8GmPl6VsPhSyO-1" value="Startseite" style="rounded=1;whiteSpace=wrap;html=1;" parent="1" vertex="1">
          <mxGeometry x="250" y="210" width="120" height="60" as="geometry" />
        </mxCell>
        <mxCell id="26M-iLZFq-NwPMCc8lZ8-22" style="edgeStyle=orthogonalEdgeStyle;rounded=0;orthogonalLoop=1;jettySize=auto;html=1;entryX=0.5;entryY=0;entryDx=0;entryDy=0;" edge="1" parent="1" source="6-bv8Tq8GmPl6VsPhSyO-2" target="26M-iLZFq-NwPMCc8lZ8-21">
          <mxGeometry relative="1" as="geometry" />
        </mxCell>
        <mxCell id="6-bv8Tq8GmPl6VsPhSyO-2" value="Start" style="ellipse;whiteSpace=wrap;html=1;aspect=fixed;fillColor=#d5e8d4;strokeColor=#82b366;" parent="1" vertex="1">
          <mxGeometry x="270" y="-160" width="80" height="80" as="geometry" />
        </mxCell>
        <mxCell id="6-bv8Tq8GmPl6VsPhSyO-27" value="JA" style="edgeStyle=orthogonalEdgeStyle;rounded=0;orthogonalLoop=1;jettySize=auto;html=1;entryX=0.5;entryY=0;entryDx=0;entryDy=0;" parent="1" source="6-bv8Tq8GmPl6VsPhSyO-7" target="6-bv8Tq8GmPl6VsPhSyO-25" edge="1">
          <mxGeometry relative="1" as="geometry" />
        </mxCell>
        <mxCell id="6-bv8Tq8GmPl6VsPhSyO-67" style="edgeStyle=orthogonalEdgeStyle;rounded=0;orthogonalLoop=1;jettySize=auto;html=1;entryX=1;entryY=0.5;entryDx=0;entryDy=0;exitX=1;exitY=0.5;exitDx=0;exitDy=0;" parent="1" source="6-bv8Tq8GmPl6VsPhSyO-7" target="6-bv8Tq8GmPl6VsPhSyO-1" edge="1">
          <mxGeometry relative="1" as="geometry">
            <Array as="points">
              <mxPoint x="510" y="240" />
            </Array>
          </mxGeometry>
        </mxCell>
        <mxCell id="6-bv8Tq8GmPl6VsPhSyO-71" value="NEIN" style="edgeLabel;html=1;align=center;verticalAlign=middle;resizable=0;points=[];" parent="6-bv8Tq8GmPl6VsPhSyO-67" vertex="1" connectable="0">
          <mxGeometry x="-0.4068" y="-1" relative="1" as="geometry">
            <mxPoint x="-1" y="34" as="offset" />
          </mxGeometry>
        </mxCell>
        <mxCell id="6-bv8Tq8GmPl6VsPhSyO-7" value="Wird &quot;News&quot;&amp;nbsp;&lt;br&gt;geklickt?" style="rhombus;whiteSpace=wrap;html=1;" parent="1" vertex="1">
          <mxGeometry x="380" y="310" width="130" height="80" as="geometry" />
        </mxCell>
        <mxCell id="6-bv8Tq8GmPl6VsPhSyO-30" value="JA" style="edgeStyle=orthogonalEdgeStyle;rounded=0;orthogonalLoop=1;jettySize=auto;html=1;entryX=0.5;entryY=0;entryDx=0;entryDy=0;" parent="1" source="6-bv8Tq8GmPl6VsPhSyO-12" target="6-bv8Tq8GmPl6VsPhSyO-23" edge="1">
          <mxGeometry relative="1" as="geometry" />
        </mxCell>
        <mxCell id="6-bv8Tq8GmPl6VsPhSyO-65" style="edgeStyle=orthogonalEdgeStyle;rounded=0;orthogonalLoop=1;jettySize=auto;html=1;entryX=0;entryY=0.5;entryDx=0;entryDy=0;" parent="1" source="6-bv8Tq8GmPl6VsPhSyO-12" target="6-bv8Tq8GmPl6VsPhSyO-1" edge="1">
          <mxGeometry relative="1" as="geometry">
            <Array as="points">
              <mxPoint x="-80" y="240" />
            </Array>
          </mxGeometry>
        </mxCell>
        <mxCell id="6-bv8Tq8GmPl6VsPhSyO-72" value="NEIN" style="edgeLabel;html=1;align=center;verticalAlign=middle;resizable=0;points=[];" parent="6-bv8Tq8GmPl6VsPhSyO-65" vertex="1" connectable="0">
          <mxGeometry x="-0.7875" relative="1" as="geometry">
            <mxPoint y="12" as="offset" />
          </mxGeometry>
        </mxCell>
        <mxCell id="6-bv8Tq8GmPl6VsPhSyO-12" value="Wird &quot;Fakten&quot; &lt;br&gt;geklickt?" style="rhombus;whiteSpace=wrap;html=1;" parent="1" vertex="1">
          <mxGeometry x="-90" y="305" width="130" height="80" as="geometry" />
        </mxCell>
        <mxCell id="6-bv8Tq8GmPl6VsPhSyO-28" value="JA" style="edgeStyle=orthogonalEdgeStyle;rounded=0;orthogonalLoop=1;jettySize=auto;html=1;entryX=0.5;entryY=0;entryDx=0;entryDy=0;" parent="1" source="6-bv8Tq8GmPl6VsPhSyO-13" target="6-bv8Tq8GmPl6VsPhSyO-26" edge="1">
          <mxGeometry relative="1" as="geometry" />
        </mxCell>
        <mxCell id="6-bv8Tq8GmPl6VsPhSyO-68" value="NEIN" style="edgeStyle=orthogonalEdgeStyle;rounded=0;orthogonalLoop=1;jettySize=auto;html=1;entryX=1;entryY=0.5;entryDx=0;entryDy=0;exitX=1;exitY=0.5;exitDx=0;exitDy=0;" parent="1" source="6-bv8Tq8GmPl6VsPhSyO-13" target="6-bv8Tq8GmPl6VsPhSyO-1" edge="1">
          <mxGeometry x="-0.8261" relative="1" as="geometry">
            <Array as="points">
              <mxPoint x="720" y="240" />
            </Array>
            <mxPoint as="offset" />
          </mxGeometry>
        </mxCell>
        <mxCell id="6-bv8Tq8GmPl6VsPhSyO-13" value="Wird &quot;Rezepte&quot; &lt;br&gt;geklcikt?" style="rhombus;whiteSpace=wrap;html=1;" parent="1" vertex="1">
          <mxGeometry x="590" y="310" width="130" height="80" as="geometry" />
        </mxCell>
        <mxCell id="6-bv8Tq8GmPl6VsPhSyO-29" value="JA" style="edgeStyle=orthogonalEdgeStyle;rounded=0;orthogonalLoop=1;jettySize=auto;html=1;entryX=0.5;entryY=0;entryDx=0;entryDy=0;" parent="1" source="6-bv8Tq8GmPl6VsPhSyO-14" target="6-bv8Tq8GmPl6VsPhSyO-24" edge="1">
          <mxGeometry relative="1" as="geometry" />
        </mxCell>
        <mxCell id="6-bv8Tq8GmPl6VsPhSyO-66" style="edgeStyle=orthogonalEdgeStyle;rounded=0;orthogonalLoop=1;jettySize=auto;html=1;entryX=0;entryY=0.5;entryDx=0;entryDy=0;" parent="1" source="6-bv8Tq8GmPl6VsPhSyO-14" target="6-bv8Tq8GmPl6VsPhSyO-1" edge="1">
          <mxGeometry relative="1" as="geometry">
            <Array as="points">
              <mxPoint x="130" y="240" />
            </Array>
          </mxGeometry>
        </mxCell>
        <mxCell id="6-bv8Tq8GmPl6VsPhSyO-73" value="NEIN" style="edgeLabel;html=1;align=center;verticalAlign=middle;resizable=0;points=[];" parent="6-bv8Tq8GmPl6VsPhSyO-66" vertex="1" connectable="0">
          <mxGeometry x="-0.7198" relative="1" as="geometry">
            <mxPoint as="offset" />
          </mxGeometry>
        </mxCell>
        <mxCell id="6-bv8Tq8GmPl6VsPhSyO-14" value="&quot;Restaurant &lt;br&gt;Empfehlungen&quot;&lt;br&gt;&amp;nbsp;geklickt?" style="rhombus;whiteSpace=wrap;html=1;" parent="1" vertex="1">
          <mxGeometry x="120" y="305" width="130" height="80" as="geometry" />
        </mxCell>
        <mxCell id="6-bv8Tq8GmPl6VsPhSyO-38" style="edgeStyle=orthogonalEdgeStyle;rounded=0;orthogonalLoop=1;jettySize=auto;html=1;entryX=0.5;entryY=0;entryDx=0;entryDy=0;" parent="1" source="6-bv8Tq8GmPl6VsPhSyO-23" target="6-bv8Tq8GmPl6VsPhSyO-31" edge="1">
          <mxGeometry relative="1" as="geometry" />
        </mxCell>
        <mxCell id="6-bv8Tq8GmPl6VsPhSyO-23" value="Alle Fakten ersichtlich" style="rounded=1;whiteSpace=wrap;html=1;" parent="1" vertex="1">
          <mxGeometry x="-85" y="450" width="120" height="60" as="geometry" />
        </mxCell>
        <mxCell id="6-bv8Tq8GmPl6VsPhSyO-35" value="" style="edgeStyle=orthogonalEdgeStyle;rounded=0;orthogonalLoop=1;jettySize=auto;html=1;" parent="1" source="6-bv8Tq8GmPl6VsPhSyO-24" target="6-bv8Tq8GmPl6VsPhSyO-32" edge="1">
          <mxGeometry relative="1" as="geometry" />
        </mxCell>
        <mxCell id="6-bv8Tq8GmPl6VsPhSyO-24" value="Alle Restuarants ersichtlich" style="rounded=1;whiteSpace=wrap;html=1;" parent="1" vertex="1">
          <mxGeometry x="125" y="450" width="120" height="60" as="geometry" />
        </mxCell>
        <mxCell id="6-bv8Tq8GmPl6VsPhSyO-37" style="edgeStyle=orthogonalEdgeStyle;rounded=0;orthogonalLoop=1;jettySize=auto;html=1;entryX=0.5;entryY=0;entryDx=0;entryDy=0;" parent="1" source="6-bv8Tq8GmPl6VsPhSyO-25" target="6-bv8Tq8GmPl6VsPhSyO-33" edge="1">
          <mxGeometry relative="1" as="geometry" />
        </mxCell>
        <mxCell id="6-bv8Tq8GmPl6VsPhSyO-25" value="Alle News ersichtlich" style="rounded=1;whiteSpace=wrap;html=1;" parent="1" vertex="1">
          <mxGeometry x="385" y="455" width="120" height="60" as="geometry" />
        </mxCell>
        <mxCell id="6-bv8Tq8GmPl6VsPhSyO-36" style="edgeStyle=orthogonalEdgeStyle;rounded=0;orthogonalLoop=1;jettySize=auto;html=1;entryX=0.5;entryY=0;entryDx=0;entryDy=0;" parent="1" source="6-bv8Tq8GmPl6VsPhSyO-26" target="6-bv8Tq8GmPl6VsPhSyO-34" edge="1">
          <mxGeometry relative="1" as="geometry" />
        </mxCell>
        <mxCell id="6-bv8Tq8GmPl6VsPhSyO-26" value="Alle Rezepte Ersichtlich" style="rounded=1;whiteSpace=wrap;html=1;" parent="1" vertex="1">
          <mxGeometry x="595" y="455" width="120" height="60" as="geometry" />
        </mxCell>
        <mxCell id="6-bv8Tq8GmPl6VsPhSyO-43" style="edgeStyle=orthogonalEdgeStyle;rounded=0;orthogonalLoop=1;jettySize=auto;html=1;entryX=0;entryY=0.25;entryDx=0;entryDy=0;" parent="1" source="6-bv8Tq8GmPl6VsPhSyO-31" target="6-bv8Tq8GmPl6VsPhSyO-1" edge="1">
          <mxGeometry relative="1" as="geometry">
            <Array as="points">
              <mxPoint x="-110" y="590" />
              <mxPoint x="-110" y="225" />
            </Array>
          </mxGeometry>
        </mxCell>
        <mxCell id="6-bv8Tq8GmPl6VsPhSyO-44" value="JA" style="edgeLabel;html=1;align=center;verticalAlign=middle;resizable=0;points=[];" parent="6-bv8Tq8GmPl6VsPhSyO-43" vertex="1" connectable="0">
          <mxGeometry x="-0.3784" y="1" relative="1" as="geometry">
            <mxPoint as="offset" />
          </mxGeometry>
        </mxCell>
        <mxCell id="6-bv8Tq8GmPl6VsPhSyO-74" value="NEIN" style="edgeStyle=orthogonalEdgeStyle;rounded=0;orthogonalLoop=1;jettySize=auto;html=1;entryX=0.5;entryY=0;entryDx=0;entryDy=0;" parent="1" source="6-bv8Tq8GmPl6VsPhSyO-31" target="6-bv8Tq8GmPl6VsPhSyO-55" edge="1">
          <mxGeometry relative="1" as="geometry" />
        </mxCell>
        <mxCell id="6-bv8Tq8GmPl6VsPhSyO-31" value="Wird &quot;Back&quot; &lt;br&gt;geklickt?" style="rhombus;whiteSpace=wrap;html=1;" parent="1" vertex="1">
          <mxGeometry x="-90" y="550" width="130" height="80" as="geometry" />
        </mxCell>
        <mxCell id="6-bv8Tq8GmPl6VsPhSyO-39" style="edgeStyle=orthogonalEdgeStyle;rounded=0;orthogonalLoop=1;jettySize=auto;html=1;entryX=0.25;entryY=1;entryDx=0;entryDy=0;" parent="1" source="6-bv8Tq8GmPl6VsPhSyO-32" target="6-bv8Tq8GmPl6VsPhSyO-1" edge="1">
          <mxGeometry relative="1" as="geometry">
            <mxPoint x="310" y="510" as="targetPoint" />
            <Array as="points">
              <mxPoint x="280" y="590" />
            </Array>
          </mxGeometry>
        </mxCell>
        <mxCell id="6-bv8Tq8GmPl6VsPhSyO-46" value="JA" style="edgeLabel;html=1;align=center;verticalAlign=middle;resizable=0;points=[];" parent="6-bv8Tq8GmPl6VsPhSyO-39" vertex="1" connectable="0">
          <mxGeometry x="-0.0448" y="-1" relative="1" as="geometry">
            <mxPoint as="offset" />
          </mxGeometry>
        </mxCell>
        <mxCell id="6-bv8Tq8GmPl6VsPhSyO-75" value="NEIN" style="edgeStyle=orthogonalEdgeStyle;rounded=0;orthogonalLoop=1;jettySize=auto;html=1;entryX=0.5;entryY=0;entryDx=0;entryDy=0;" parent="1" source="6-bv8Tq8GmPl6VsPhSyO-32" target="6-bv8Tq8GmPl6VsPhSyO-54" edge="1">
          <mxGeometry relative="1" as="geometry" />
        </mxCell>
        <mxCell id="6-bv8Tq8GmPl6VsPhSyO-32" value="Wird &quot;Back&quot; &lt;br&gt;geklickt?" style="rhombus;whiteSpace=wrap;html=1;" parent="1" vertex="1">
          <mxGeometry x="120" y="550" width="130" height="80" as="geometry" />
        </mxCell>
        <mxCell id="6-bv8Tq8GmPl6VsPhSyO-41" style="edgeStyle=orthogonalEdgeStyle;rounded=0;orthogonalLoop=1;jettySize=auto;html=1;entryX=0.75;entryY=1;entryDx=0;entryDy=0;" parent="1" source="6-bv8Tq8GmPl6VsPhSyO-33" target="6-bv8Tq8GmPl6VsPhSyO-1" edge="1">
          <mxGeometry relative="1" as="geometry" />
        </mxCell>
        <mxCell id="6-bv8Tq8GmPl6VsPhSyO-45" value="JA" style="edgeLabel;html=1;align=center;verticalAlign=middle;resizable=0;points=[];" parent="6-bv8Tq8GmPl6VsPhSyO-41" vertex="1" connectable="0">
          <mxGeometry x="-0.0065" y="3" relative="1" as="geometry">
            <mxPoint as="offset" />
          </mxGeometry>
        </mxCell>
        <mxCell id="6-bv8Tq8GmPl6VsPhSyO-78" value="NEIN" style="edgeStyle=orthogonalEdgeStyle;rounded=0;orthogonalLoop=1;jettySize=auto;html=1;entryX=0.5;entryY=0;entryDx=0;entryDy=0;" parent="1" source="6-bv8Tq8GmPl6VsPhSyO-33" target="6-bv8Tq8GmPl6VsPhSyO-53" edge="1">
          <mxGeometry relative="1" as="geometry" />
        </mxCell>
        <mxCell id="26M-iLZFq-NwPMCc8lZ8-11" style="edgeStyle=orthogonalEdgeStyle;rounded=0;orthogonalLoop=1;jettySize=auto;html=1;entryX=1;entryY=0.75;entryDx=0;entryDy=0;" edge="1" parent="1" source="6-bv8Tq8GmPl6VsPhSyO-33" target="6-bv8Tq8GmPl6VsPhSyO-25">
          <mxGeometry relative="1" as="geometry">
            <mxPoint x="520" y="590" as="targetPoint" />
            <Array as="points">
              <mxPoint x="520" y="590" />
              <mxPoint x="520" y="500" />
            </Array>
          </mxGeometry>
        </mxCell>
        <mxCell id="26M-iLZFq-NwPMCc8lZ8-13" value="JA" style="edgeLabel;html=1;align=center;verticalAlign=middle;resizable=0;points=[];" vertex="1" connectable="0" parent="26M-iLZFq-NwPMCc8lZ8-11">
          <mxGeometry x="-0.0231" y="1" relative="1" as="geometry">
            <mxPoint as="offset" />
          </mxGeometry>
        </mxCell>
        <mxCell id="6-bv8Tq8GmPl6VsPhSyO-33" value="Wird &quot;Back&quot; &lt;br&gt;geklickt?" style="rhombus;whiteSpace=wrap;html=1;" parent="1" vertex="1">
          <mxGeometry x="380" y="550" width="130" height="80" as="geometry" />
        </mxCell>
        <mxCell id="6-bv8Tq8GmPl6VsPhSyO-42" value="JA" style="edgeStyle=orthogonalEdgeStyle;rounded=0;orthogonalLoop=1;jettySize=auto;html=1;entryX=1;entryY=0.25;entryDx=0;entryDy=0;" parent="1" source="6-bv8Tq8GmPl6VsPhSyO-34" target="6-bv8Tq8GmPl6VsPhSyO-1" edge="1">
          <mxGeometry x="-0.4702" relative="1" as="geometry">
            <Array as="points">
              <mxPoint x="740" y="590" />
              <mxPoint x="740" y="225" />
            </Array>
            <mxPoint as="offset" />
          </mxGeometry>
        </mxCell>
        <mxCell id="6-bv8Tq8GmPl6VsPhSyO-81" value="NEIN" style="edgeStyle=orthogonalEdgeStyle;rounded=0;orthogonalLoop=1;jettySize=auto;html=1;entryX=0.5;entryY=0;entryDx=0;entryDy=0;" parent="1" source="6-bv8Tq8GmPl6VsPhSyO-34" target="6-bv8Tq8GmPl6VsPhSyO-63" edge="1">
          <mxGeometry relative="1" as="geometry" />
        </mxCell>
        <mxCell id="6-bv8Tq8GmPl6VsPhSyO-34" value="Wird &quot;Back&quot; &lt;br&gt;geklickt?" style="rhombus;whiteSpace=wrap;html=1;" parent="1" vertex="1">
          <mxGeometry x="590" y="550" width="130" height="80" as="geometry" />
        </mxCell>
        <mxCell id="6-bv8Tq8GmPl6VsPhSyO-83" value="JA" style="edgeStyle=orthogonalEdgeStyle;rounded=0;orthogonalLoop=1;jettySize=auto;html=1;entryX=0.5;entryY=0;entryDx=0;entryDy=0;" parent="1" source="6-bv8Tq8GmPl6VsPhSyO-50" target="6-bv8Tq8GmPl6VsPhSyO-51" edge="1">
          <mxGeometry relative="1" as="geometry" />
        </mxCell>
        <mxCell id="6-bv8Tq8GmPl6VsPhSyO-86" value="NEIN" style="edgeStyle=orthogonalEdgeStyle;rounded=0;orthogonalLoop=1;jettySize=auto;html=1;entryX=0;entryY=0.5;entryDx=0;entryDy=0;" parent="1" source="6-bv8Tq8GmPl6VsPhSyO-50" target="6-bv8Tq8GmPl6VsPhSyO-26" edge="1">
          <mxGeometry relative="1" as="geometry">
            <Array as="points">
              <mxPoint x="570" y="820" />
              <mxPoint x="570" y="485" />
            </Array>
          </mxGeometry>
        </mxCell>
        <mxCell id="6-bv8Tq8GmPl6VsPhSyO-50" value="Wird &lt;br&gt;Spezifisches Rezept &lt;br&gt;angeklickt?" style="rhombus;whiteSpace=wrap;html=1;" parent="1" vertex="1">
          <mxGeometry x="590" y="780" width="130" height="80" as="geometry" />
        </mxCell>
        <mxCell id="6-bv8Tq8GmPl6VsPhSyO-84" style="edgeStyle=orthogonalEdgeStyle;rounded=0;orthogonalLoop=1;jettySize=auto;html=1;entryX=0.5;entryY=0;entryDx=0;entryDy=0;" parent="1" source="6-bv8Tq8GmPl6VsPhSyO-51" target="6-bv8Tq8GmPl6VsPhSyO-52" edge="1">
          <mxGeometry relative="1" as="geometry" />
        </mxCell>
        <mxCell id="6-bv8Tq8GmPl6VsPhSyO-51" value="Zutaten und Anleitung ersichtlich" style="rounded=1;whiteSpace=wrap;html=1;" parent="1" vertex="1">
          <mxGeometry x="595" y="890" width="120" height="60" as="geometry" />
        </mxCell>
        <mxCell id="26M-iLZFq-NwPMCc8lZ8-7" style="edgeStyle=orthogonalEdgeStyle;rounded=0;orthogonalLoop=1;jettySize=auto;html=1;entryX=1;entryY=0.5;entryDx=0;entryDy=0;" edge="1" parent="1" source="6-bv8Tq8GmPl6VsPhSyO-52" target="6-bv8Tq8GmPl6VsPhSyO-26">
          <mxGeometry relative="1" as="geometry">
            <mxPoint x="920" y="540" as="targetPoint" />
            <Array as="points">
              <mxPoint x="910" y="1040" />
              <mxPoint x="910" y="485" />
            </Array>
          </mxGeometry>
        </mxCell>
        <mxCell id="26M-iLZFq-NwPMCc8lZ8-8" value="JA" style="edgeLabel;html=1;align=center;verticalAlign=middle;resizable=0;points=[];" vertex="1" connectable="0" parent="26M-iLZFq-NwPMCc8lZ8-7">
          <mxGeometry x="-0.066" y="2" relative="1" as="geometry">
            <mxPoint as="offset" />
          </mxGeometry>
        </mxCell>
        <mxCell id="26M-iLZFq-NwPMCc8lZ8-9" style="edgeStyle=orthogonalEdgeStyle;rounded=0;orthogonalLoop=1;jettySize=auto;html=1;entryX=0;entryY=0.5;entryDx=0;entryDy=0;" edge="1" parent="1" source="6-bv8Tq8GmPl6VsPhSyO-52" target="6-bv8Tq8GmPl6VsPhSyO-51">
          <mxGeometry relative="1" as="geometry">
            <Array as="points">
              <mxPoint x="570" y="1040" />
              <mxPoint x="570" y="920" />
            </Array>
          </mxGeometry>
        </mxCell>
        <mxCell id="26M-iLZFq-NwPMCc8lZ8-10" value="NEIN" style="edgeLabel;html=1;align=center;verticalAlign=middle;resizable=0;points=[];" vertex="1" connectable="0" parent="26M-iLZFq-NwPMCc8lZ8-9">
          <mxGeometry x="0.0667" y="-2" relative="1" as="geometry">
            <mxPoint as="offset" />
          </mxGeometry>
        </mxCell>
        <mxCell id="6-bv8Tq8GmPl6VsPhSyO-52" value="Wird &quot;Back&quot; &lt;br&gt;geklickt?" style="rhombus;whiteSpace=wrap;html=1;" parent="1" vertex="1">
          <mxGeometry x="590" y="1000" width="130" height="80" as="geometry" />
        </mxCell>
        <mxCell id="6-bv8Tq8GmPl6VsPhSyO-80" value="JA" style="edgeStyle=orthogonalEdgeStyle;rounded=0;orthogonalLoop=1;jettySize=auto;html=1;entryX=0.5;entryY=0;entryDx=0;entryDy=0;" parent="1" source="6-bv8Tq8GmPl6VsPhSyO-53" target="6-bv8Tq8GmPl6VsPhSyO-58" edge="1">
          <mxGeometry relative="1" as="geometry" />
        </mxCell>
        <mxCell id="26M-iLZFq-NwPMCc8lZ8-5" style="edgeStyle=orthogonalEdgeStyle;rounded=0;orthogonalLoop=1;jettySize=auto;html=1;entryX=1;entryY=0.5;entryDx=0;entryDy=0;" edge="1" parent="1" source="6-bv8Tq8GmPl6VsPhSyO-53" target="6-bv8Tq8GmPl6VsPhSyO-25">
          <mxGeometry relative="1" as="geometry">
            <Array as="points">
              <mxPoint x="530" y="700" />
              <mxPoint x="530" y="485" />
            </Array>
          </mxGeometry>
        </mxCell>
        <mxCell id="26M-iLZFq-NwPMCc8lZ8-6" value="NEIN" style="edgeLabel;html=1;align=center;verticalAlign=middle;resizable=0;points=[];" vertex="1" connectable="0" parent="26M-iLZFq-NwPMCc8lZ8-5">
          <mxGeometry x="-0.056" y="-1" relative="1" as="geometry">
            <mxPoint y="33" as="offset" />
          </mxGeometry>
        </mxCell>
        <mxCell id="6-bv8Tq8GmPl6VsPhSyO-53" value="Wird die Search &lt;br&gt;Bar genutzt?" style="rhombus;whiteSpace=wrap;html=1;" parent="1" vertex="1">
          <mxGeometry x="380" y="660" width="130" height="80" as="geometry" />
        </mxCell>
        <mxCell id="6-bv8Tq8GmPl6VsPhSyO-77" value="JA" style="edgeStyle=orthogonalEdgeStyle;rounded=0;orthogonalLoop=1;jettySize=auto;html=1;entryX=0.5;entryY=0;entryDx=0;entryDy=0;" parent="1" source="6-bv8Tq8GmPl6VsPhSyO-54" target="6-bv8Tq8GmPl6VsPhSyO-62" edge="1">
          <mxGeometry relative="1" as="geometry" />
        </mxCell>
        <mxCell id="26M-iLZFq-NwPMCc8lZ8-3" style="edgeStyle=orthogonalEdgeStyle;rounded=0;orthogonalLoop=1;jettySize=auto;html=1;entryX=0;entryY=0.5;entryDx=0;entryDy=0;" edge="1" parent="1" source="6-bv8Tq8GmPl6VsPhSyO-54" target="6-bv8Tq8GmPl6VsPhSyO-24">
          <mxGeometry relative="1" as="geometry">
            <Array as="points">
              <mxPoint x="100" y="700" />
              <mxPoint x="100" y="480" />
            </Array>
          </mxGeometry>
        </mxCell>
        <mxCell id="26M-iLZFq-NwPMCc8lZ8-4" value="NEIN" style="edgeLabel;html=1;align=center;verticalAlign=middle;resizable=0;points=[];" vertex="1" connectable="0" parent="26M-iLZFq-NwPMCc8lZ8-3">
          <mxGeometry x="-0.117" relative="1" as="geometry">
            <mxPoint as="offset" />
          </mxGeometry>
        </mxCell>
        <mxCell id="6-bv8Tq8GmPl6VsPhSyO-54" value="Wird die Search &lt;br&gt;Bar genutzt?" style="rhombus;whiteSpace=wrap;html=1;" parent="1" vertex="1">
          <mxGeometry x="120" y="660" width="130" height="80" as="geometry" />
        </mxCell>
        <mxCell id="6-bv8Tq8GmPl6VsPhSyO-76" value="JA" style="edgeStyle=orthogonalEdgeStyle;rounded=0;orthogonalLoop=1;jettySize=auto;html=1;entryX=0.5;entryY=0;entryDx=0;entryDy=0;" parent="1" source="6-bv8Tq8GmPl6VsPhSyO-55" target="6-bv8Tq8GmPl6VsPhSyO-61" edge="1">
          <mxGeometry relative="1" as="geometry" />
        </mxCell>
        <mxCell id="26M-iLZFq-NwPMCc8lZ8-1" style="edgeStyle=orthogonalEdgeStyle;rounded=0;orthogonalLoop=1;jettySize=auto;html=1;entryX=1;entryY=0.5;entryDx=0;entryDy=0;" edge="1" parent="1" source="6-bv8Tq8GmPl6VsPhSyO-55" target="6-bv8Tq8GmPl6VsPhSyO-23">
          <mxGeometry relative="1" as="geometry">
            <Array as="points">
              <mxPoint x="55" y="700" />
              <mxPoint x="55" y="480" />
            </Array>
          </mxGeometry>
        </mxCell>
        <mxCell id="26M-iLZFq-NwPMCc8lZ8-2" value="NEIN" style="edgeLabel;html=1;align=center;verticalAlign=middle;resizable=0;points=[];" vertex="1" connectable="0" parent="26M-iLZFq-NwPMCc8lZ8-1">
          <mxGeometry x="-0.0824" relative="1" as="geometry">
            <mxPoint as="offset" />
          </mxGeometry>
        </mxCell>
        <mxCell id="6-bv8Tq8GmPl6VsPhSyO-55" value="Wird die Search &lt;br&gt;Bar genutzt?" style="rhombus;whiteSpace=wrap;html=1;" parent="1" vertex="1">
          <mxGeometry x="-90" y="660" width="130" height="80" as="geometry" />
        </mxCell>
        <mxCell id="26M-iLZFq-NwPMCc8lZ8-17" style="edgeStyle=orthogonalEdgeStyle;rounded=0;orthogonalLoop=1;jettySize=auto;html=1;entryX=0;entryY=0.5;entryDx=0;entryDy=0;" edge="1" parent="1" source="6-bv8Tq8GmPl6VsPhSyO-58" target="6-bv8Tq8GmPl6VsPhSyO-25">
          <mxGeometry relative="1" as="geometry">
            <Array as="points">
              <mxPoint x="365" y="810" />
              <mxPoint x="365" y="485" />
            </Array>
          </mxGeometry>
        </mxCell>
        <mxCell id="6-bv8Tq8GmPl6VsPhSyO-58" value="Wort das angegeben wurd wird Markiert" style="rounded=1;whiteSpace=wrap;html=1;" parent="1" vertex="1">
          <mxGeometry x="385" y="780" width="120" height="60" as="geometry" />
        </mxCell>
        <mxCell id="26M-iLZFq-NwPMCc8lZ8-15" style="edgeStyle=orthogonalEdgeStyle;rounded=0;orthogonalLoop=1;jettySize=auto;html=1;entryX=0;entryY=0.5;entryDx=0;entryDy=0;" edge="1" parent="1" source="6-bv8Tq8GmPl6VsPhSyO-61" target="6-bv8Tq8GmPl6VsPhSyO-23">
          <mxGeometry relative="1" as="geometry">
            <Array as="points">
              <mxPoint x="-100" y="810" />
              <mxPoint x="-100" y="480" />
            </Array>
          </mxGeometry>
        </mxCell>
        <mxCell id="6-bv8Tq8GmPl6VsPhSyO-61" value="Wort das angegeben wurd wird Markiert" style="rounded=1;whiteSpace=wrap;html=1;" parent="1" vertex="1">
          <mxGeometry x="-85" y="780" width="120" height="60" as="geometry" />
        </mxCell>
        <mxCell id="26M-iLZFq-NwPMCc8lZ8-16" style="edgeStyle=orthogonalEdgeStyle;rounded=0;orthogonalLoop=1;jettySize=auto;html=1;entryX=1;entryY=0.5;entryDx=0;entryDy=0;" edge="1" parent="1" source="6-bv8Tq8GmPl6VsPhSyO-62" target="6-bv8Tq8GmPl6VsPhSyO-24">
          <mxGeometry relative="1" as="geometry">
            <Array as="points">
              <mxPoint x="265" y="810" />
              <mxPoint x="265" y="480" />
            </Array>
          </mxGeometry>
        </mxCell>
        <mxCell id="6-bv8Tq8GmPl6VsPhSyO-62" value="Wort das angegeben wurd wird Markiert" style="rounded=1;whiteSpace=wrap;html=1;" parent="1" vertex="1">
          <mxGeometry x="125" y="780" width="120" height="60" as="geometry" />
        </mxCell>
        <mxCell id="6-bv8Tq8GmPl6VsPhSyO-82" value="NEIN" style="edgeStyle=orthogonalEdgeStyle;rounded=0;orthogonalLoop=1;jettySize=auto;html=1;entryX=0.5;entryY=0;entryDx=0;entryDy=0;" parent="1" source="6-bv8Tq8GmPl6VsPhSyO-63" target="6-bv8Tq8GmPl6VsPhSyO-50" edge="1">
          <mxGeometry relative="1" as="geometry" />
        </mxCell>
        <mxCell id="6-bv8Tq8GmPl6VsPhSyO-85" value="JA" style="edgeStyle=orthogonalEdgeStyle;rounded=0;orthogonalLoop=1;jettySize=auto;html=1;entryX=0;entryY=0.5;entryDx=0;entryDy=0;" parent="1" source="6-bv8Tq8GmPl6VsPhSyO-63" target="6-bv8Tq8GmPl6VsPhSyO-64" edge="1">
          <mxGeometry relative="1" as="geometry" />
        </mxCell>
        <mxCell id="6-bv8Tq8GmPl6VsPhSyO-63" value="Wird die Search &lt;br&gt;Bar genutzt?" style="rhombus;whiteSpace=wrap;html=1;" parent="1" vertex="1">
          <mxGeometry x="590" y="660" width="130" height="80" as="geometry" />
        </mxCell>
        <mxCell id="26M-iLZFq-NwPMCc8lZ8-14" style="edgeStyle=orthogonalEdgeStyle;rounded=0;orthogonalLoop=1;jettySize=auto;html=1;entryX=0.997;entryY=0.653;entryDx=0;entryDy=0;entryPerimeter=0;" edge="1" parent="1" source="6-bv8Tq8GmPl6VsPhSyO-64" target="6-bv8Tq8GmPl6VsPhSyO-26">
          <mxGeometry relative="1" as="geometry">
            <Array as="points">
              <mxPoint x="890" y="700" />
              <mxPoint x="890" y="494" />
            </Array>
          </mxGeometry>
        </mxCell>
        <mxCell id="6-bv8Tq8GmPl6VsPhSyO-64" value="Wort das angegeben wurd wird Markiert" style="rounded=1;whiteSpace=wrap;html=1;" parent="1" vertex="1">
          <mxGeometry x="760" y="670" width="120" height="60" as="geometry" />
        </mxCell>
        <mxCell id="26M-iLZFq-NwPMCc8lZ8-18" value="Ende" style="ellipse;whiteSpace=wrap;html=1;aspect=fixed;fillColor=#f8cecc;strokeColor=#b85450;" vertex="1" parent="1">
          <mxGeometry x="270" y="1340" width="80" height="80" as="geometry" />
        </mxCell>
        <mxCell id="26M-iLZFq-NwPMCc8lZ8-23" style="edgeStyle=orthogonalEdgeStyle;rounded=0;orthogonalLoop=1;jettySize=auto;html=1;" edge="1" parent="1" source="26M-iLZFq-NwPMCc8lZ8-21">
          <mxGeometry relative="1" as="geometry">
            <mxPoint x="310" y="70" as="targetPoint" />
          </mxGeometry>
        </mxCell>
        <mxCell id="26M-iLZFq-NwPMCc8lZ8-21" value="App wird eingeschalten" style="rounded=1;whiteSpace=wrap;html=1;" vertex="1" parent="1">
          <mxGeometry x="250" y="-40" width="120" height="60" as="geometry" />
        </mxCell>
        <mxCell id="26M-iLZFq-NwPMCc8lZ8-107" style="edgeStyle=orthogonalEdgeStyle;rounded=0;orthogonalLoop=1;jettySize=auto;html=1;entryX=0.438;entryY=1.001;entryDx=0;entryDy=0;entryPerimeter=0;startArrow=classic;startFill=1;endArrow=none;endFill=0;" edge="1" parent="1" source="26M-iLZFq-NwPMCc8lZ8-24" target="26M-iLZFq-NwPMCc8lZ8-20">
          <mxGeometry relative="1" as="geometry" />
        </mxCell>
        <mxCell id="26M-iLZFq-NwPMCc8lZ8-108" style="edgeStyle=orthogonalEdgeStyle;rounded=0;orthogonalLoop=1;jettySize=auto;html=1;" edge="1" parent="1" source="26M-iLZFq-NwPMCc8lZ8-24" target="26M-iLZFq-NwPMCc8lZ8-18">
          <mxGeometry relative="1" as="geometry" />
        </mxCell>
        <mxCell id="26M-iLZFq-NwPMCc8lZ8-24" value="App wird ausgeschalten" style="rounded=1;whiteSpace=wrap;html=1;" vertex="1" parent="1">
          <mxGeometry x="250" y="1250" width="120" height="60" as="geometry" />
        </mxCell>
        <mxCell id="26M-iLZFq-NwPMCc8lZ8-105" style="edgeStyle=orthogonalEdgeStyle;rounded=0;orthogonalLoop=1;jettySize=auto;html=1;entryX=0.5;entryY=0;entryDx=0;entryDy=0;" edge="1" parent="1" source="26M-iLZFq-NwPMCc8lZ8-106">
          <mxGeometry relative="1" as="geometry">
            <mxPoint x="310" y="210" as="targetPoint" />
          </mxGeometry>
        </mxCell>
        <mxCell id="26M-iLZFq-NwPMCc8lZ8-106" value="Start" style="ellipse;whiteSpace=wrap;html=1;aspect=fixed;fillColor=#d5e8d4;strokeColor=#82b366;" vertex="1" parent="1">
          <mxGeometry x="270" y="90" width="80" height="80" as="geometry" />
        </mxCell>
      </root>
    </mxGraphModel>
  </diagram>
</mxfile>
